<svg width="48" height="48" viewBox="0 0 48 48" fill="none" xmlns="http://www.w3.org/2000/svg">
<path opacity="0.2" d="M24 48C37.2548 48 48 37.2548 48 24C48 10.7452 37.2548 0 24 0C10.7452 0 0 10.7452 0 24C0 37.2548 10.7452 48 24 48Z" fill="#F3BA2F"/>
<path fill-rule="evenodd" clip-rule="evenodd" d="M18.9818 21.9371L24.0017 16.9194L29.0237 21.9412L31.943 19.02L24.0017 11.0769L16.0604 19.0179L18.9818 21.9371ZM11.0762 24.0004L13.9964 21.0802L16.9167 24.0004L13.9964 26.9206L11.0762 24.0004ZM24.0017 31.0826L18.9818 26.0628L16.0563 28.98L16.0604 28.9841L24.0017 36.9231L31.943 28.98L31.9451 28.9779L29.0237 26.0608L24.0017 31.0826ZM31.0818 24.0011L34.0021 21.081L36.9223 24.0011L34.0021 26.9213L31.0818 24.0011ZM24.0017 21.0348L26.9639 23.999H26.9659L26.9639 24.001L24.0017 26.9651L21.0396 24.0051L21.0355 23.999L21.0396 23.9949L21.5581 23.4764L21.8112 23.2253L24.0017 21.0348Z" fill="#F3BA2F"/>
</svg>
