<svg width="48" height="48" viewBox="0 0 48 48" fill="none" xmlns="http://www.w3.org/2000/svg">
<path opacity="0.2" d="M47.8699 24.0005C47.8699 37.1855 37.1815 47.8742 23.9966 47.8742C10.8115 47.8742 0.123047 37.1855 0.123047 24.0005C0.123047 10.8156 10.8115 0.127075 23.9966 0.127075C37.1814 0.127075 47.8699 10.8156 47.8699 24.0005Z" fill="#505050"/>
<g opacity="0.8">
<path d="M23.9209 12.9231L23.7734 13.4243V27.9679L23.9209 28.1151L30.6719 24.1246L23.9209 12.9231Z" fill="white"/>
<path d="M23.9209 12.9231L17.1699 24.1246L23.9209 28.1152V21.0561V12.9231Z" fill="white"/>
<path d="M23.921 30.3116L23.8379 30.4129V35.5937L23.921 35.8364L30.676 26.3231L23.921 30.3116Z" fill="white"/>
<path d="M23.9209 35.8364V30.3116L17.1699 26.3231L23.9209 35.8364Z" fill="white"/>
<path d="M23.9199 28.1151L30.6708 24.1247L23.9199 21.0562V28.1151Z" fill="white"/>
<path d="M17.1699 24.1247L23.9208 28.1151V21.0562L17.1699 24.1247Z" fill="white"/>
</g>
</svg>
