<svg width="48" height="48" viewBox="0 0 48 48" fill="none" xmlns="http://www.w3.org/2000/svg">
<path opacity="0.2" d="M47.8699 24.0005C47.8699 37.1855 37.1815 47.8742 23.9966 47.8742C10.8115 47.8742 0.123047 37.1855 0.123047 24.0005C0.123047 10.8156 10.8115 0.127075 23.9966 0.127075C37.1814 0.127075 47.8699 10.8156 47.8699 24.0005Z" fill="#9F47AD"/>
<g clip-path="url(#clip0_39_1633)">
<path d="M30.5954 19.6684C30.1242 19.4039 29.5185 19.4039 28.98 19.6684L25.2108 21.8507L22.6531 23.2395L18.9512 25.4218C18.48 25.6863 17.8742 25.6863 17.3358 25.4218L14.4416 23.7024C13.9704 23.4379 13.6339 22.9088 13.6339 22.3137V19.0071C13.6339 18.4781 13.9031 17.949 14.4416 17.6184L17.3358 15.9651C17.8069 15.7006 18.4127 15.7006 18.9512 15.9651L21.8454 17.6845C22.3166 17.949 22.6531 18.4781 22.6531 19.0732V21.2556L25.2108 19.8007V17.5522C25.2108 17.0232 24.9416 16.4941 24.4031 16.1635L19.0185 13.0553C18.5473 12.7908 17.9416 12.7908 17.4031 13.0553L11.8839 16.2296C11.3454 16.4941 11.0762 17.0232 11.0762 17.5522V23.7685C11.0762 24.2976 11.3454 24.8266 11.8839 25.1573L17.3358 28.2654C17.8069 28.53 18.4127 28.53 18.9512 28.2654L22.6531 26.1492L25.2108 24.6944L28.9127 22.5782C29.3839 22.3137 29.9896 22.3137 30.5281 22.5782L33.4223 24.2314C33.8935 24.496 34.23 25.025 34.23 25.6202V28.9267C34.23 29.4558 33.9608 29.9848 33.4223 30.3155L30.5954 31.9688C30.1242 32.2333 29.5185 32.2333 28.98 31.9688L26.0858 30.3155C25.6146 30.051 25.2781 29.5219 25.2781 28.9267V26.8105L22.7204 28.2654V30.4477C22.7204 30.9768 22.9896 31.5058 23.5281 31.8365L28.98 34.9446C29.4512 35.2092 30.0569 35.2092 30.5954 34.9446L36.0473 31.8365C36.5185 31.572 36.855 31.0429 36.855 30.4477V24.1653C36.855 23.6363 36.5858 23.1072 36.0473 22.7766L30.5954 19.6684Z" fill="#A36CFF"/>
</g>
<defs>
<clipPath id="clip0_39_1633">
<rect width="25.8462" height="22.1538" fill="white" transform="translate(11.0762 12.9231)"/>
</clipPath>
</defs>
</svg>
