<svg width="48" height="48" viewBox="0 0 48 48" fill="none" xmlns="http://www.w3.org/2000/svg">
<path opacity="0.2" d="M47.8699 24.0005C47.8699 37.1855 37.1815 47.8742 23.9966 47.8742C10.8115 47.8742 0.123047 37.1855 0.123047 24.0005C0.123047 10.8156 10.8115 0.127075 23.9966 0.127075C37.1814 0.127075 47.8699 10.8156 47.8699 24.0005Z" fill="#47ADA7"/>
<path fill-rule="evenodd" clip-rule="evenodd" d="M15.4597 22.173H30.209C30.3939 22.173 30.5692 22.2449 30.6967 22.373L33.03 24.6767C33.4604 25.1018 33.1544 25.827 32.5423 25.827H17.793C17.6082 25.827 17.4328 25.7551 17.3053 25.6269L14.972 23.3232C14.5385 22.8981 14.8477 22.173 15.4597 22.173ZM14.972 19.1191L17.3053 16.8154C17.436 16.6872 17.6114 16.6154 17.793 16.6154H32.5391C33.1512 16.6154 33.4604 17.3405 33.0269 17.7656L30.6967 20.0693C30.566 20.1975 30.3907 20.2694 30.209 20.2694H15.4597C14.8477 20.2694 14.5385 19.5442 14.972 19.1191ZM33.0269 28.8809L30.6935 31.1845C30.5628 31.3127 30.3875 31.3846 30.2058 31.3846H15.4597C14.8477 31.3846 14.5385 30.6594 14.972 30.2343L17.3053 27.9306C17.436 27.8025 17.6114 27.7306 17.793 27.7306H32.5391C33.1512 27.7306 33.4604 28.4557 33.0269 28.8809Z" fill="url(#paint0_linear_39_1630)"/>
<defs>
<linearGradient id="paint0_linear_39_1630" x1="15.8205" y1="32.0201" x2="31.8576" y2="15.6654" gradientUnits="userSpaceOnUse">
<stop stop-color="#CB4EE8"/>
<stop offset="1" stop-color="#10F4B1"/>
</linearGradient>
</defs>
</svg>
