<svg fill="none" height="32" viewBox="0 0 24 24" width="32" xmlns="http://www.w3.org/2000/svg"><path d="m5.94685 8.40315c3.34332-3.2042 8.76395-3.2042 12.10725 0l.5532.53017c.0837.08018.0839.2103.0004.29063-.0001.00015-.0002.0003-.0004.00045l-1.5276 1.4639c-.0834.08-.2186.08-.3021 0l-.5539-.5309c-2.3324-2.2353-6.114-2.2353-8.44635 0l-.5933.5686c-.08349.08-.21862.08-.30211 0l-1.52756-1.46403c-.08365-.08017-.08382-.2103-.0004-.29062.00013-.00015.00026-.0003.0004-.00038zm14.80225 2.58275 1.3757 1.3184c.1673.1604.1676.4206.0008.5814-.0003.0003-.0005.0005-.0008.0008l-5.5233 5.2935c-.1671.16-.4373.16-.6043 0l-3.9212-3.758c-.0417-.04-.1092-.04-.151 0l-3.92108 3.758c-.16702.16-.43725.16-.60424 0l-5.52349-5.2936c-.16729-.1603-.16765-.4207-.00079-.5814.00026-.0002.00052-.0005.00079-.0007l1.37564-1.3184c.08349-.08.21863-.08.30212 0l4.07227 3.9027c.04178.0401.10935.0401.15105 0l3.92103-3.7579c.167-.1601.4372-.1601.6042 0l3.9213 3.7579c.0417.0401.1092.0401.151 0l4.0722-3.9027c.0835-.0799.2186-.0799.3021 0z" fill="#3b99fc"/></svg>